<svg width="1337" height="857" viewBox="0 0 1337 857" fill="none" xmlns="http://www.w3.org/2000/svg">
<rect opacity="0.2" x="41" y="710" width="52" height="52" rx="12" fill="#230343" stroke="black" stroke-width="8"/>
<rect opacity="0.2" x="149" y="64" width="52" height="52" rx="12" transform="rotate(90 149 64)" fill="#230343" stroke="black" stroke-width="8"/>
<rect opacity="0.2" x="-0.366827" y="5.64495" width="52" height="52" rx="12" transform="matrix(-0.751472 0.659765 0.659765 0.751472 1253.14 53.9708)" fill="#230343" stroke="black" stroke-width="8"/>
<rect opacity="0.2" x="41" y="770" width="52" height="52" rx="12" fill="#230343" stroke="black" stroke-width="8"/>
<rect opacity="0.2" x="89" y="64" width="52" height="52" rx="12" transform="rotate(90 89 64)" fill="#230343" stroke="black" stroke-width="8"/>
<rect opacity="0.2" x="-0.366827" y="5.64495" width="52" height="52" rx="12" transform="matrix(-0.751472 0.659765 0.659765 0.751472 1292.72 99.059)" fill="#230343" stroke="black" stroke-width="8"/>
<rect opacity="0.2" x="101" y="770" width="52" height="52" rx="12" fill="#230343" stroke="black" stroke-width="8"/>
<rect opacity="0.2" x="89" y="124" width="52" height="52" rx="12" transform="rotate(90 89 124)" fill="#230343" stroke="black" stroke-width="8"/>
<rect opacity="0.2" x="-0.366827" y="5.64495" width="52" height="52" rx="12" transform="matrix(-0.751472 0.659765 0.659765 0.751472 1247.63 138.645)" fill="#230343" stroke="black" stroke-width="8"/>
<rect opacity="0.2" x="1232" y="642" width="52" height="52" rx="12" fill="#230343" stroke="black" stroke-width="8"/>
<rect opacity="0.2" x="1290" y="605" width="29" height="29" rx="4" fill="#230343" stroke="black" stroke-width="8"/>
<rect opacity="0.2" x="1055" y="787" width="35" height="35" rx="4" fill="#230343" stroke="black" stroke-width="8"/>
<rect opacity="0.2" x="375" y="13" width="35" height="35" rx="4" fill="#230343" stroke="black" stroke-width="8"/>
<rect opacity="0.2" x="1210" y="818" width="35" height="35" rx="4" fill="#230343" stroke="black" stroke-width="8"/>
<rect opacity="0.2" x="780" y="715" width="35" height="35" rx="4" fill="#230343" stroke="black" stroke-width="8"/>
<rect opacity="0.2" x="410" y="818" width="35" height="35" rx="4" fill="#230343" stroke="black" stroke-width="8"/>
<rect opacity="0.2" x="474" y="758" width="35" height="35" rx="4" fill="#230343" stroke="black" stroke-width="8"/>
<rect opacity="0.2" x="4" y="590" width="35" height="35" rx="4" fill="#230343" stroke="black" stroke-width="8"/>
<rect opacity="0.2" x="89" y="455" width="35" height="35" rx="4" fill="#230343" stroke="black" stroke-width="8"/>
<rect opacity="0.2" x="1012" y="787" width="35" height="35" rx="4" fill="#230343" stroke="black" stroke-width="8"/>
<rect opacity="0.2" x="332" y="13" width="35" height="35" rx="4" fill="#230343" stroke="black" stroke-width="8"/>
<rect opacity="0.2" x="969" y="787" width="35" height="35" rx="4" fill="#230343" stroke="black" stroke-width="8"/>
<rect opacity="0.2" x="289" y="13" width="35" height="35" rx="4" fill="#230343" stroke="black" stroke-width="8"/>
<rect opacity="0.2" x="1025" y="31" width="34" height="34" rx="4" fill="#230343" stroke="black" stroke-width="8"/>
<rect opacity="0.2" x="621" y="52" width="34" height="34" rx="4" fill="#230343" stroke="black" stroke-width="8"/>
<path d="M322.027 686.125C322.269 685.097 323.731 685.097 323.973 686.125L325.913 694.344C326 694.712 326.288 695 326.656 695.087L334.875 697.027C335.903 697.269 335.903 698.731 334.875 698.973L326.656 700.913C326.288 701 326 701.288 325.913 701.656L323.973 709.875C323.731 710.903 322.269 710.903 322.027 709.875L320.087 701.656C320 701.288 319.712 701 319.344 700.913L311.125 698.973C310.097 698.731 310.097 697.269 311.125 697.027L319.344 695.087C319.712 695 320 694.712 320.087 694.344L322.027 686.125Z" fill="white"/>
<path d="M58.0267 399.125C58.2691 398.097 59.7309 398.097 59.9733 399.125L61.9127 407.344C61.9997 407.712 62.2876 408 62.6563 408.087L70.8754 410.027C71.9026 410.269 71.9026 411.731 70.8754 411.973L62.6563 413.913C62.2876 414 61.9997 414.288 61.9127 414.656L59.9733 422.875C59.7309 423.903 58.2691 423.903 58.0267 422.875L56.0873 414.656C56.0003 414.288 55.7124 414 55.3437 413.913L47.1246 411.973C46.0974 411.731 46.0974 410.269 47.1246 410.027L55.3437 408.087C55.7124 408 56.0003 407.712 56.0873 407.344L58.0267 399.125Z" fill="white"/>
<path d="M1147.03 52.1246C1147.27 51.0974 1148.73 51.0974 1148.97 52.1246L1150.91 60.3437C1151 60.7124 1151.29 61.0003 1151.66 61.0873L1159.88 63.0267C1160.9 63.2691 1160.9 64.7309 1159.88 64.9733L1151.66 66.9127C1151.29 66.9997 1151 67.2876 1150.91 67.6563L1148.97 75.8754C1148.73 76.9026 1147.27 76.9026 1147.03 75.8754L1145.09 67.6563C1145 67.2876 1144.71 66.9997 1144.34 66.9127L1136.12 64.9733C1135.1 64.7309 1135.1 63.2691 1136.12 63.0267L1144.34 61.0873C1144.71 61.0003 1145 60.7124 1145.09 60.3437L1147.03 52.1246Z" fill="white"/>
<path d="M204.527 13.1246C204.769 12.0974 206.231 12.0974 206.473 13.1246L210.417 29.839C210.504 30.2077 210.792 30.4956 211.161 30.5826L227.875 34.5267C228.903 34.7691 228.903 36.2309 227.875 36.4733L211.161 40.4174C210.792 40.5044 210.504 40.7923 210.417 41.161L206.473 57.8754C206.231 58.9026 204.769 58.9026 204.527 57.8754L200.583 41.161C200.496 40.7923 200.208 40.5044 199.839 40.4174L183.125 36.4733C182.097 36.2309 182.097 34.7691 183.125 34.5267L199.839 30.5826C200.208 30.4956 200.496 30.2077 200.583 29.839L204.527 13.1246Z" fill="white"/>
<path d="M1286.53 400.125C1286.77 399.097 1288.23 399.097 1288.47 400.125L1292.42 416.839C1292.5 417.208 1292.79 417.496 1293.16 417.583L1309.88 421.527C1310.9 421.769 1310.9 423.231 1309.88 423.473L1293.16 427.417C1292.79 427.504 1292.5 427.792 1292.42 428.161L1288.47 444.875C1288.23 445.903 1286.77 445.903 1286.53 444.875L1282.58 428.161C1282.5 427.792 1282.21 427.504 1281.84 427.417L1265.12 423.473C1264.1 423.231 1264.1 421.769 1265.12 421.527L1281.84 417.583C1282.21 417.496 1282.5 417.208 1282.58 416.839L1286.53 400.125Z" fill="white"/>
<path d="M926.027 814.125C926.269 813.097 927.731 813.097 927.973 814.125L929.913 822.344C930 822.712 930.288 823 930.656 823.087L938.875 825.027C939.903 825.269 939.903 826.731 938.875 826.973L930.656 828.913C930.288 829 930 829.288 929.913 829.656L927.973 837.875C927.731 838.903 926.269 838.903 926.027 837.875L924.087 829.656C924 829.288 923.712 829 923.344 828.913L915.125 826.973C914.097 826.731 914.097 825.269 915.125 825.027L923.344 823.087C923.712 823 924 822.712 924.087 822.344L926.027 814.125Z" fill="white"/>
<circle cx="1039" cy="704" r="3" fill="white"/>
<circle cx="235" cy="842" r="3" fill="white"/>
<circle cx="11" cy="763" r="3" fill="white"/>
<circle cx="117" cy="598" r="3" fill="white"/>
<circle cx="127" cy="270" r="3" fill="white"/>
<circle cx="27" cy="229" r="3" fill="white"/>
<circle cx="390" cy="100" r="3" fill="white"/>
<circle cx="742" cy="6" r="3" fill="white"/>
<circle cx="779" cy="61" r="3" fill="white"/>
<circle cx="1091" cy="3" r="3" fill="white"/>
<circle cx="1323" cy="52" r="3" fill="white"/>
<circle cx="1225" cy="294" r="3" fill="white"/>
<circle cx="1334" cy="349" r="3" fill="white"/>
<circle cx="1231" cy="552" r="3" fill="white"/>
<circle cx="1323" cy="807" r="3" fill="white"/>
<circle cx="620" cy="730" r="3" fill="white"/>
<circle cx="583" cy="808" r="3" fill="white"/>
<circle cx="705" cy="842" r="3" fill="white"/>
</svg>
